<svg width="73" height="33" viewBox="0 0 73 33" fill="none" xmlns="http://www.w3.org/2000/svg">
<path d="M24.7654 20.6406L27.1299 24.3978L29.5731 20.6656H31.5306V21.8188L28.4688 26.5113L31.5306 31.5285V20.6656H37.057C38.1022 20.6656 39.6348 21.3353 39.6348 24.3388C39.6348 28.5522 37.6182 28.6022 36.5139 28.6022H33.6441V32.6817H29.5534L27.0544 28.6839L24.4947 32.6522H16.3609V20.6383H24.7654V20.6406V20.6406ZM49.8032 20.6406H56.7735V23.2309H51.9363V25.4807H56.639V27.7599H51.9363V30.1391H56.7735V32.6545H49.8032V20.6406V20.6406ZM42.777 32.684H40.6439V20.6679H46.1884C47.2369 20.6679 48.7481 21.3126 48.7481 23.8847C48.7481 25.3376 48.438 26.4069 47.2746 27.2128C48.2821 27.374 48.671 28.2866 48.671 30.2163L48.7481 32.684H46.6724L46.615 30.4819C46.5969 29.4649 46.3049 28.4455 45.5698 28.4455H42.777V32.684V32.684ZM70.1596 25.324C72.7833 25.5056 72.9999 27.3195 72.9999 29.2492C72.9999 31.5012 71.6626 32.709 70.2662 32.709H65.7884V30.1368H69.2785C69.8708 30.1368 70.7519 30.1368 70.7519 28.979C70.7519 28.4296 70.5961 28.0823 69.966 27.987C69.4764 27.9211 68.9856 27.8742 68.4941 27.8462C66.1264 27.7599 65.5767 26.1322 65.5767 24.1481C65.5767 21.896 66.7204 20.6633 68.1167 20.6633H72.5946V23.24H69.3178C68.5729 23.2536 67.7672 23.1174 67.7672 24.2865C67.7672 25.0221 68.166 25.1696 68.6681 25.24C68.842 25.2423 70.0054 25.324 70.1596 25.324V25.324ZM62.1719 25.324C64.794 25.5056 65.0122 27.3195 65.0122 29.2492C65.0122 31.5012 63.6733 32.709 62.2786 32.709H57.799V30.1368H61.2891C61.8798 30.1368 62.7643 30.1368 62.7643 28.979C62.7643 28.4296 62.6084 28.0823 61.9783 27.987C61.6961 27.9325 60.6591 27.8507 60.5065 27.8462C58.1387 27.7599 57.589 26.1322 57.589 24.1481C57.589 21.896 58.7327 20.6633 60.1274 20.6633H64.6069V23.24H61.3302C60.5836 23.2536 59.7796 23.1174 59.7796 24.2865C59.7796 25.0221 60.1766 25.1696 60.682 25.24C60.8543 25.2423 62.0177 25.324 62.1719 25.324V25.324ZM34.0707 12.0298H31.9376V0.0136223H37.482C38.5289 0.0136223 40.0434 0.658357 40.0434 3.23049C40.0434 4.68114 39.7333 5.75494 38.5699 6.55859C39.5774 6.71978 39.9663 7.63239 39.9663 9.56206L40.0434 12.0298H37.9693L37.9103 9.82994C37.8906 8.81062 37.6018 7.79358 36.8634 7.79358H34.0723V12.0298H34.0707V12.0298ZM41.1296 12.0298H43.2611V0H41.1296V12.0298ZM23.7464 0.0136223H30.7151V2.60164H25.8828V4.85595H30.5822V7.13749H25.8828V9.50985H30.7151V12.0298H23.7464V0.0136223V0.0136223ZM8.18293 12.0298H12.477V3.11244L15.3256 12.0298H17.2651L20.1809 3.26V12.0298H22.3123V0.0136223H18.9108L16.2937 8.07508L13.6864 0.0136223H10.3423V11.5871L6.6192 0.0136223H3.80022L0 12.0298H2.24961L3.08152 9.34866H7.33625L8.18293 12.0298V12.0298ZM55.5314 9.35547H51.2783L50.4447 12.0366H47.6323C45.2679 12.0366 44.2193 9.29418 44.2702 5.96834C44.3424 1.03294 46.4509 0.00681117 47.4207 0.00681117H50.2035V2.62208H48.8859C47.4699 2.62208 46.3656 2.82639 46.3656 5.64143V6.51319C46.3754 8.63128 47.1778 9.13299 47.6914 9.28055C47.8177 9.32142 48.0507 9.33731 48.1361 9.32823L49.0582 9.32142L51.9954 0.0136223H54.8176L58.4521 11.2919V0.00681117H61.6009L65.1977 8.32707V0.00681117H67.3291V12.0366H64.4215L60.5836 3.2373V12.0366H56.3764L55.5314 9.35547V9.35547Z" fill="#FEFEFE"/>
<path d="M33.4304 25.5782H36.0869C36.9582 25.5782 37.2683 24.879 37.2683 24.0754C37.2683 23.4851 36.9878 22.6974 36.0951 22.6974H33.4304V25.5782ZM23.116 22.6701H18.2804V24.9199H22.9798V27.1992H18.2804V29.5783H23.1948L25.5412 25.9528L23.4655 22.6815L23.116 22.6701ZM42.5617 25.4193H45.2183C46.0896 25.4193 46.3997 24.8813 46.3997 24.0754C46.3997 23.4851 46.1191 22.6974 45.2265 22.6974H42.5617V25.4193ZM33.8554 4.7651H36.5119C37.3848 4.7651 37.6933 4.22933 37.6933 3.42341C37.6933 2.83543 37.4127 2.04086 36.5201 2.04086H33.8554V4.7651ZM6.29725 6.20213H3.70142L4.97472 2L6.29725 6.20213ZM53.1666 2.00681L51.8966 6.20667H54.5022L53.1666 2.00681Z" fill="#2EA868"/>
</svg>
